<svg width="640" height="641" viewBox="0 0 640 641" fill="none" xmlns="http://www.w3.org/2000/svg">
<path d="M799.415 449.601C785.933 466.37 748.618 503.069 693.912 539.808C678.839 549.943 662.437 560.078 644.852 569.798C630.499 577.73 615.371 585.384 599.509 592.535C566.983 607.224 531.467 619.792 493.549 628.302C470.384 633.532 446.85 637.038 423.147 638.79C396.128 640.786 368.98 640.331 342.046 637.431C341.935 637.431 341.81 637.431 341.693 637.39C300.64 632.931 262.391 627.058 227.366 617.916C217.844 615.442 208.565 612.709 199.532 609.718C184.101 604.655 169.067 598.494 154.549 591.284C148.385 588.198 142.371 584.908 136.507 581.414C130.408 577.789 124.479 573.924 118.721 569.818C116.645 568.343 114.61 566.841 112.597 565.305C99.5889 555.429 87.6317 544.285 76.9076 532.045C74.0563 528.796 71.2651 525.438 68.5338 521.972C66.2269 519.031 63.9478 516.006 61.6963 512.897C58.8497 508.951 56.0815 504.872 53.3917 500.662C48.3951 492.827 43.6707 484.534 39.2185 475.784C35.4492 468.402 31.8713 460.676 28.4848 452.605C-5.37023 371.758 -31.1906 239.265 86.5893 192.717C110.569 183.242 127.718 177.763 142.002 174.011C151.891 171.435 160.403 169.701 168.874 168.09C192.258 163.611 215.241 159.975 265.56 141.635C356.793 109.904 461.899 45.2194 599.509 16C672 0.607458 719.064 -16.4993 740.409 36.6068C745.337 40.6308 748.196 43.267 752.916 47.7578C759.329 53.8436 765.532 60.3169 771.525 67.1776C778.173 74.7906 784.526 82.8296 790.584 91.2945C790.978 91.8519 791.38 92.4092 791.767 92.9734C861.312 191.405 886.585 341.211 799.415 449.601Z" fill="url(#paint0_linear)"/>
<g opacity="0.8">
<path d="M644.852 569.798C564.408 614.272 459.154 650.101 342.046 637.41C253.013 627.751 177.199 611.499 118.728 569.798H644.852Z" fill="url(#paint1_linear)" style="mix-blend-mode:multiply"/>
</g>
<path d="M110.448 210.312L121.752 200.147V180L121.27 180.122V199.983L110 210.136V286.764L143.518 324.285V355H144V324.133L110.448 286.611V210.312Z" fill="#AAD6E3"/>
<path d="M165.573 167.417H165.22V221.116L150.05 236.016V272.653H150.542V236.22L165.711 221.313V167.411L165.573 167.417Z" fill="#AAD6E3"/>
<path d="M190.085 162.374V209.085H190.577V162.129L190.085 162.374Z" fill="#AAD6E3"/>
<path d="M424.48 313H424V254.653L442.52 227.775V53.9999H443V228.069L424.48 254.948V313Z" fill="#AAD6E3"/>
<path d="M224.418 155.801V223.733H224.909V155.76L224.418 155.801Z" fill="#AAD6E3"/>
<path d="M219.844 155.753V263.083L205.74 276.942V312.628H206.231V277.139L220.342 263.287V155.767L219.844 155.753Z" fill="#AAD6E3"/>
<path d="M262.751 141.982L262.259 142.356V178.504L275.983 192.037V272.653H276.474V191.82L262.751 178.3V141.982Z" fill="#AAD6E3"/>
<path d="M493 273H492.483V139.429L478 117.048V36.9999H478.517V116.71L493 139.103V273Z" fill="#AAD6E3"/>
<path d="M319.208 155.753H318.717V217.649H319.208V155.753Z" fill="#AAD6E3"/>
<path d="M375 239H374.495V158.251L355 134.13V99H355.505V133.875L375 157.995V239Z" fill="#AAD6E3"/>
<path d="M335.617 127.259L335.125 111V181.325H335.617V127.259Z" fill="#AAD6E3"/>
<path d="M410.488 229H410V132.136L425.512 105.771V62H426V106.121L410.488 132.487V229Z" fill="#AAD6E3"/>
<path d="M509.674 263.769V310.31L492.297 327.378V375.014H492.795V327.555L510.172 310.487V265.332C509.992 264.816 509.812 264.292 509.674 263.769Z" fill="#AAD6E3"/>
<path d="M374.427 241.603C375.864 241.603 377.029 240.459 377.029 239.047C377.029 237.636 375.864 236.492 374.427 236.492C372.99 236.492 371.825 237.636 371.825 239.047C371.825 240.459 372.99 241.603 374.427 241.603Z" fill="#AAD6E3"/>
<path d="M276.135 277.058C277.572 277.058 278.737 275.914 278.737 274.502C278.737 273.091 277.572 271.946 276.135 271.946C274.698 271.946 273.533 273.091 273.533 274.502C273.533 275.914 274.698 277.058 276.135 277.058Z" fill="#AAD6E3"/>
<path d="M193.013 209.622C193.013 209.116 192.86 208.622 192.574 208.202C192.288 207.782 191.882 207.454 191.406 207.26C190.931 207.067 190.408 207.016 189.903 207.115C189.398 207.214 188.935 207.457 188.571 207.815C188.207 208.172 187.959 208.627 187.858 209.123C187.758 209.619 187.81 210.133 188.007 210.6C188.203 211.067 188.537 211.466 188.965 211.747C189.393 212.028 189.896 212.178 190.411 212.178C191.101 212.178 191.763 211.908 192.251 211.429C192.739 210.95 193.013 210.3 193.013 209.622Z" fill="#AAD6E3"/>
<path d="M335.374 183.609C336.811 183.609 337.976 182.464 337.976 181.053C337.976 179.641 336.811 178.497 335.374 178.497C333.937 178.497 332.772 179.641 332.772 181.053C332.772 182.464 333.937 183.609 335.374 183.609Z" fill="#AAD6E3"/>
<path d="M318.876 158.696C320.313 158.696 321.478 157.552 321.478 156.141C321.478 154.729 320.313 153.585 318.876 153.585C317.439 153.585 316.274 154.729 316.274 156.141C316.274 157.552 317.439 158.696 318.876 158.696Z" fill="#AAD6E3"/>
<path d="M167.744 279.768C171.737 270.3 167.159 259.445 157.519 255.523C147.879 251.601 136.828 256.097 132.835 265.566C128.842 275.034 133.419 285.889 143.059 289.811C152.699 293.733 163.751 289.237 167.744 279.768Z" fill="#19FF00"/>
<path d="M153.736 270.161C153.736 271.2 153.377 272.067 152.66 272.76C151.955 273.442 150.873 273.782 149.415 273.782H147.012V279H145.381V266.503H149.415C150.825 266.503 151.895 266.843 152.624 267.525C153.365 268.206 153.736 269.085 153.736 270.161ZM149.415 272.438C150.323 272.438 150.993 272.24 151.423 271.846C151.853 271.451 152.069 270.89 152.069 270.161C152.069 268.619 151.184 267.848 149.415 267.848H147.012V272.438H149.415ZM164.227 269.174L158.31 283.626H156.625L158.561 278.892L154.598 269.174H156.409L159.493 277.135L162.541 269.174H164.227Z" fill="black"/>
<path d="M205.982 331.192C216.416 331.192 224.875 322.884 224.875 312.635C224.875 302.386 216.416 294.078 205.982 294.078C195.547 294.078 187.089 302.386 187.089 312.635C187.089 322.884 195.547 331.192 205.982 331.192Z" fill="#FF00D6"/>
<path d="M199.716 318.084C198.94 318.084 198.232 317.904 197.592 317.544C196.952 317.176 196.444 316.668 196.068 316.02C195.7 315.364 195.516 314.628 195.516 313.812C195.516 312.996 195.7 312.264 196.068 311.616C196.444 310.96 196.952 310.452 197.592 310.092C198.232 309.724 198.94 309.54 199.716 309.54C200.5 309.54 201.212 309.724 201.852 310.092C202.492 310.452 202.996 310.956 203.364 311.604C203.732 312.252 203.916 312.988 203.916 313.812C203.916 314.636 203.732 315.372 203.364 316.02C202.996 316.668 202.492 317.176 201.852 317.544C201.212 317.904 200.5 318.084 199.716 318.084ZM199.716 317.136C200.3 317.136 200.824 317 201.288 316.728C201.76 316.456 202.128 316.068 202.392 315.564C202.664 315.06 202.8 314.476 202.8 313.812C202.8 313.14 202.664 312.556 202.392 312.06C202.128 311.556 201.764 311.168 201.3 310.896C200.836 310.624 200.308 310.488 199.716 310.488C199.124 310.488 198.596 310.624 198.132 310.896C197.668 311.168 197.3 311.556 197.028 312.06C196.764 312.556 196.632 313.14 196.632 313.812C196.632 314.476 196.764 315.06 197.028 315.564C197.3 316.068 197.668 316.456 198.132 316.728C198.604 317 199.132 317.136 199.716 317.136ZM209.546 313.692C209.85 313.74 210.126 313.864 210.374 314.064C210.63 314.264 210.83 314.512 210.974 314.808C211.126 315.104 211.202 315.42 211.202 315.756C211.202 316.18 211.094 316.564 210.878 316.908C210.662 317.244 210.346 317.512 209.93 317.712C209.522 317.904 209.038 318 208.478 318H205.358V309.636H208.358C208.926 309.636 209.41 309.732 209.81 309.924C210.21 310.108 210.51 310.36 210.71 310.68C210.91 311 211.01 311.36 211.01 311.76C211.01 312.256 210.874 312.668 210.602 312.996C210.338 313.316 209.986 313.548 209.546 313.692ZM206.45 313.248H208.286C208.798 313.248 209.194 313.128 209.474 312.888C209.754 312.648 209.894 312.316 209.894 311.892C209.894 311.468 209.754 311.136 209.474 310.896C209.194 310.656 208.79 310.536 208.262 310.536H206.45V313.248ZM208.382 317.1C208.926 317.1 209.35 316.972 209.654 316.716C209.958 316.46 210.11 316.104 210.11 315.648C210.11 315.184 209.95 314.82 209.63 314.556C209.31 314.284 208.882 314.148 208.346 314.148H206.45V317.1H208.382ZM213.809 309.636V318H212.717V309.636H213.809Z" fill="#333333"/>
<path d="M318.966 236.206C329.4 236.206 337.859 227.898 337.859 217.649C337.859 207.401 329.4 199.093 318.966 199.093C308.532 199.093 300.073 207.401 300.073 217.649C300.073 227.898 308.532 236.206 318.966 236.206Z" fill="#FFF500"/>
<path d="M314.136 214.636V220.816C314.136 221.504 313.924 222.056 313.5 222.472C313.076 222.88 312.516 223.084 311.82 223.084C311.116 223.084 310.552 222.876 310.128 222.46C309.704 222.036 309.492 221.46 309.492 220.732H310.584C310.592 221.14 310.696 221.472 310.896 221.728C311.104 221.984 311.412 222.112 311.82 222.112C312.228 222.112 312.532 221.992 312.732 221.752C312.932 221.504 313.032 221.192 313.032 220.816V214.636H314.136ZM318.939 223.084C318.387 223.084 317.891 222.988 317.451 222.796C317.019 222.596 316.679 222.324 316.431 221.98C316.183 221.628 316.055 221.224 316.047 220.768H317.211C317.251 221.16 317.411 221.492 317.691 221.764C317.979 222.028 318.395 222.16 318.939 222.16C319.459 222.16 319.867 222.032 320.163 221.776C320.467 221.512 320.619 221.176 320.619 220.768C320.619 220.448 320.531 220.188 320.355 219.988C320.179 219.788 319.959 219.636 319.695 219.532C319.431 219.428 319.075 219.316 318.627 219.196C318.075 219.052 317.631 218.908 317.295 218.764C316.967 218.62 316.683 218.396 316.443 218.092C316.211 217.78 316.095 217.364 316.095 216.844C316.095 216.388 316.211 215.984 316.443 215.632C316.675 215.28 316.999 215.008 317.415 214.816C317.839 214.624 318.323 214.528 318.867 214.528C319.651 214.528 320.291 214.724 320.787 215.116C321.291 215.508 321.575 216.028 321.639 216.676H320.439C320.399 216.356 320.231 216.076 319.935 215.836C319.639 215.588 319.247 215.464 318.759 215.464C318.303 215.464 317.931 215.584 317.643 215.824C317.355 216.056 317.211 216.384 317.211 216.808C317.211 217.112 317.295 217.36 317.463 217.552C317.639 217.744 317.851 217.892 318.099 217.996C318.355 218.092 318.711 218.204 319.167 218.332C319.719 218.484 320.163 218.636 320.499 218.788C320.835 218.932 321.123 219.16 321.363 219.472C321.603 219.776 321.723 220.192 321.723 220.72C321.723 221.128 321.615 221.512 321.399 221.872C321.183 222.232 320.863 222.524 320.439 222.748C320.015 222.972 319.515 223.084 318.939 223.084Z" fill="#333333"/>
<g style="mix-blend-mode:luminosity">
<path d="M147.429 392.008C157.728 390.366 164.722 380.834 163.051 370.718C161.379 360.602 151.674 353.733 141.375 355.375C131.075 357.017 124.081 366.549 125.753 376.665C127.425 386.781 137.129 393.651 147.429 392.008Z" fill="white"/>
</g>
<path d="M132.516 376.812C132.516 375.996 132.7 375.264 133.068 374.616C133.436 373.96 133.936 373.448 134.568 373.08C135.208 372.712 135.916 372.528 136.692 372.528C137.604 372.528 138.4 372.748 139.08 373.188C139.76 373.628 140.256 374.252 140.568 375.06H139.26C139.028 374.556 138.692 374.168 138.252 373.896C137.82 373.624 137.3 373.488 136.692 373.488C136.108 373.488 135.584 373.624 135.12 373.896C134.656 374.168 134.292 374.556 134.028 375.06C133.764 375.556 133.632 376.14 133.632 376.812C133.632 377.476 133.764 378.06 134.028 378.564C134.292 379.06 134.656 379.444 135.12 379.716C135.584 379.988 136.108 380.124 136.692 380.124C137.3 380.124 137.82 379.992 138.252 379.728C138.692 379.456 139.028 379.068 139.26 378.564H140.568C140.256 379.364 139.76 379.984 139.08 380.424C138.4 380.856 137.604 381.072 136.692 381.072C135.916 381.072 135.208 380.892 134.568 380.532C133.936 380.164 133.436 379.656 133.068 379.008C132.7 378.36 132.516 377.628 132.516 376.812ZM148.434 377.076H145.878V379.668H144.858V377.076H142.314V376.152H144.858V373.548H145.878V376.152H148.434V377.076ZM156.625 377.076H154.069V379.668H153.049V377.076H150.505V376.152H153.049V373.548H154.069V376.152H156.625V377.076Z" fill="black"/>
<path d="M409.541 245.552C419.976 245.552 428.434 237.244 428.434 226.996C428.434 216.747 419.976 208.439 409.541 208.439C399.107 208.439 390.648 216.747 390.648 226.996C390.648 237.244 399.107 245.552 409.541 245.552Z" fill="#00FFF0"/>
<path d="M404.408 221.696V230H403.316V223.808L400.556 230H399.788L397.016 223.796V230H395.924V221.696H397.1L400.172 228.56L403.244 221.696H404.408ZM405.852 226.688C405.852 226.016 405.988 225.428 406.26 224.924C406.532 224.412 406.904 224.016 407.376 223.736C407.856 223.456 408.388 223.316 408.972 223.316C409.548 223.316 410.048 223.44 410.472 223.688C410.896 223.936 411.212 224.248 411.42 224.624V223.424H412.524V230H411.42V228.776C411.204 229.16 410.88 229.48 410.448 229.736C410.024 229.984 409.528 230.108 408.96 230.108C408.376 230.108 407.848 229.964 407.376 229.676C406.904 229.388 406.532 228.984 406.26 228.464C405.988 227.944 405.852 227.352 405.852 226.688ZM411.42 226.7C411.42 226.204 411.32 225.772 411.12 225.404C410.92 225.036 410.648 224.756 410.304 224.564C409.968 224.364 409.596 224.264 409.188 224.264C408.78 224.264 408.408 224.36 408.072 224.552C407.736 224.744 407.468 225.024 407.268 225.392C407.068 225.76 406.968 226.192 406.968 226.688C406.968 227.192 407.068 227.632 407.268 228.008C407.468 228.376 407.736 228.66 408.072 228.86C408.408 229.052 408.78 229.148 409.188 229.148C409.596 229.148 409.968 229.052 410.304 228.86C410.648 228.66 410.92 228.376 411.12 228.008C411.32 227.632 411.42 227.196 411.42 226.7ZM415.701 224.324V228.2C415.701 228.52 415.769 228.748 415.905 228.884C416.041 229.012 416.277 229.076 416.613 229.076H417.417V230H416.433C415.825 230 415.369 229.86 415.065 229.58C414.761 229.3 414.609 228.84 414.609 228.2V224.324H413.757V223.424H414.609V221.768H415.701V223.424H417.417V224.324H415.701ZM422.004 223.304C422.5 223.304 422.948 223.412 423.348 223.628C423.748 223.836 424.06 224.152 424.284 224.576C424.516 225 424.632 225.516 424.632 226.124V230H423.552V226.28C423.552 225.624 423.388 225.124 423.06 224.78C422.732 224.428 422.284 224.252 421.716 224.252C421.14 224.252 420.68 224.432 420.336 224.792C420 225.152 419.832 225.676 419.832 226.364V230H418.74V221.12H419.832V224.36C420.048 224.024 420.344 223.764 420.72 223.58C421.104 223.396 421.532 223.304 422.004 223.304Z" fill="#333333"/>
<path d="M510.009 279.627C513.955 270.139 509.323 259.307 499.664 255.431C490.004 251.555 478.975 256.105 475.029 265.592C471.083 275.08 475.715 285.912 485.374 289.788C495.034 293.664 506.063 289.114 510.009 279.627Z" fill="#8F00FF"/>
<path d="M481.836 273.082L488.561 275.8V277.905L479.773 273.834V272.266L488.561 268.205V270.311L481.836 273.082ZM492.095 281.343H490.387L496.918 264.359H498.615L492.095 281.343ZM507.8 273.018L500.699 270.235V268.194L509.873 272.255V273.823L500.699 277.895V275.832L507.8 273.018Z" fill="black"/>
<path d="M423.396 331.192C433.83 331.192 442.289 322.884 442.289 312.635C442.289 302.386 433.83 294.078 423.396 294.078C412.962 294.078 404.503 302.386 404.503 312.635C404.503 322.884 412.962 331.192 423.396 331.192Z" fill="#FF0000"/>
<path d="M492.546 393.55C502.98 393.55 511.439 385.242 511.439 374.993C511.439 364.745 502.98 356.437 492.546 356.437C482.111 356.437 473.653 364.745 473.653 374.993C473.653 385.242 482.111 393.55 492.546 393.55Z" fill="#2400FF"/>
<path d="M495.279 372.003C495.279 371.799 495.279 371.581 495.279 371.37C495.279 370.798 495.195 370.228 495.03 369.678L496.67 368.747L495.141 366.15L493.501 367.081C492.688 366.253 491.655 365.666 490.518 365.389V363.526H487.466V365.368C486.691 365.559 485.961 365.894 485.314 366.354L483.861 365.158L481.895 367.462L483.348 368.652C482.996 369.357 482.786 370.124 482.733 370.908L480.864 371.235L481.438 374.205L483.3 373.879C483.635 374.597 484.105 375.247 484.684 375.796L483.743 377.4L486.387 378.902L487.335 377.291C487.894 377.452 488.475 377.535 489.058 377.536C489.272 377.536 489.487 377.536 489.702 377.536L490.352 379.276L493.224 378.249L492.574 376.509C493.237 376.067 493.809 375.507 494.262 374.858L496.034 375.49L497.079 372.669L495.279 372.003ZM489.051 375.401C488.245 375.401 487.457 375.166 486.786 374.727C486.116 374.287 485.594 373.661 485.285 372.93C484.977 372.198 484.896 371.393 485.053 370.617C485.21 369.84 485.599 369.127 486.169 368.567C486.739 368.007 487.465 367.625 488.256 367.471C489.046 367.317 489.866 367.396 490.611 367.699C491.356 368.002 491.992 368.515 492.44 369.173C492.888 369.832 493.127 370.606 493.127 371.398C493.12 372.455 492.687 373.466 491.924 374.211C491.16 374.956 490.127 375.374 489.051 375.374V375.401Z" fill="#333333"/>
<path d="M503.245 380.832C503.255 380.683 503.255 380.533 503.245 380.384C503.244 379.981 503.186 379.581 503.072 379.194L504.221 378.515L503.148 376.686L501.999 377.366C501.431 376.791 500.713 376.38 499.923 376.176V374.885H497.771V376.19C497.228 376.32 496.716 376.55 496.262 376.87L495.279 376.034L493.895 377.651L494.913 378.487C494.668 378.983 494.522 379.521 494.484 380.071L493.169 380.302L493.542 382.341L494.85 382.117C495.08 382.626 495.407 383.088 495.812 383.477L495.12 384.605L496.982 385.658L497.674 384.53C498.067 384.643 498.475 384.7 498.885 384.7C499.037 384.7 499.19 384.7 499.335 384.7L499.792 385.924L501.812 385.196L501.356 383.973C501.826 383.667 502.228 383.272 502.539 382.81L503.785 383.259L504.518 381.274L503.245 380.832ZM498.857 383.198C498.291 383.198 497.737 383.033 497.266 382.724C496.794 382.414 496.427 381.975 496.21 381.461C495.994 380.946 495.937 380.381 496.047 379.835C496.158 379.289 496.431 378.787 496.831 378.394C497.232 378 497.743 377.732 498.298 377.624C498.854 377.515 499.43 377.571 499.954 377.784C500.477 377.997 500.925 378.358 501.24 378.82C501.554 379.283 501.722 379.827 501.722 380.384C501.722 381.13 501.421 381.846 500.883 382.374C500.346 382.901 499.617 383.198 498.857 383.198Z" fill="#333333"/>
<path d="M226.3 245.552C236.735 245.552 245.193 237.244 245.193 226.996C245.193 216.747 236.735 208.439 226.3 208.439C215.866 208.439 207.407 216.747 207.407 226.996C207.407 237.244 215.866 245.552 226.3 245.552Z" fill="#FF5C00"/>
<path d="M228.224 218.689C227.75 217.726 227.007 216.914 226.082 216.349C225.157 215.783 224.087 215.487 222.998 215.494C221.908 215.5 220.843 215.811 219.925 216.388C219.008 216.965 218.276 217.786 217.814 218.756C217.352 219.725 217.179 220.803 217.316 221.865C217.452 222.927 217.892 223.929 218.585 224.755C219.278 225.581 220.195 226.198 221.229 226.533C222.264 226.868 223.375 226.908 224.432 226.649L226.556 230.952C226.422 231.219 226.352 231.513 226.352 231.812C226.352 232.11 226.422 232.404 226.556 232.671L230.508 240.679C230.736 241.14 231.141 241.494 231.634 241.662C232.127 241.83 232.668 241.799 233.138 241.576C233.608 241.352 233.968 240.955 234.139 240.47C234.311 239.986 234.279 239.454 234.051 238.993L230.107 230.986C229.973 230.719 229.779 230.486 229.539 230.304C229.299 230.123 229.019 229.998 228.723 229.939L226.605 225.636C227.645 224.836 228.374 223.71 228.669 222.445C228.964 221.18 228.807 219.854 228.224 218.689ZM219.581 222.768C219.252 222.109 219.126 221.371 219.218 220.644C219.31 219.916 219.616 219.231 220.099 218.671C220.581 218.111 221.219 217.702 221.934 217.493C222.649 217.284 223.411 217.284 224.127 217.493C224.842 217.702 225.48 218.112 225.962 218.672C226.444 219.231 226.75 219.917 226.842 220.644C226.934 221.372 226.808 222.11 226.479 222.768C226.151 223.427 225.634 223.977 224.992 224.352C224.883 224.371 224.776 224.403 224.674 224.447C224.577 224.498 224.487 224.559 224.404 224.63C223.513 224.973 222.523 224.976 221.63 224.637C220.738 224.299 220.006 223.644 219.581 222.802V222.768Z" fill="#A01C1C"/>
<path opacity="0.8" d="M594.707 594.845H149.213C146.5 594.845 143.899 593.787 141.98 591.903C140.062 590.019 138.985 587.464 138.985 584.799C138.982 583.478 139.244 582.169 139.757 580.947C140.27 579.726 141.023 578.615 141.973 577.68C142.923 576.744 144.051 576.002 145.293 575.495C146.536 574.988 147.868 574.726 149.213 574.726H594.707C597.42 574.727 600.022 575.787 601.94 577.673C603.858 579.558 604.935 582.114 604.935 584.779C604.938 586.1 604.675 587.408 604.162 588.63C603.65 589.851 602.897 590.961 601.947 591.896C600.996 592.831 599.868 593.573 598.626 594.079C597.383 594.585 596.052 594.845 594.707 594.845Z" fill="white"/>
<path d="M594.706 574.725H594.243C594.516 575.607 594.663 576.523 594.679 577.444C594.679 580.11 593.601 582.666 591.683 584.551C589.765 586.436 587.164 587.496 584.45 587.498H139.421C140.02 589.597 141.301 591.446 143.069 592.765C144.836 594.084 146.993 594.8 149.213 594.805H594.706C597.374 594.737 599.909 593.648 601.771 591.771C603.634 589.893 604.676 587.376 604.676 584.755C604.676 582.134 603.634 579.617 601.771 577.739C599.909 575.862 597.374 574.773 594.706 574.705V574.725Z" fill="#C7C7C7"/>
<path d="M595.959 596.157H457.853C457.678 596.157 457.504 596.123 457.342 596.058C457.18 595.992 457.033 595.895 456.909 595.773C456.785 595.651 456.686 595.507 456.619 595.348C456.552 595.188 456.518 595.018 456.518 594.846C456.518 594.673 456.552 594.503 456.619 594.344C456.686 594.184 456.785 594.04 456.909 593.918C457.033 593.796 457.18 593.699 457.342 593.634C457.504 593.568 457.678 593.534 457.853 593.534H595.959C596.134 593.534 596.308 593.568 596.47 593.634C596.632 593.699 596.779 593.796 596.903 593.918C597.027 594.04 597.126 594.184 597.193 594.344C597.26 594.503 597.294 594.673 597.294 594.846C597.294 595.018 597.26 595.188 597.193 595.348C597.126 595.507 597.027 595.651 596.903 595.773C596.779 595.895 596.632 595.992 596.47 596.058C596.308 596.123 596.134 596.157 595.959 596.157Z" fill="white"/>
<path d="M238.363 596.157H211.85C211.675 596.157 211.501 596.123 211.339 596.058C211.177 595.992 211.03 595.895 210.906 595.773C210.782 595.651 210.684 595.507 210.616 595.348C210.549 595.188 210.515 595.018 210.515 594.846C210.515 594.673 210.549 594.503 210.616 594.344C210.684 594.184 210.782 594.04 210.906 593.918C211.03 593.796 211.177 593.699 211.339 593.634C211.501 593.568 211.675 593.534 211.85 593.534H238.363C238.538 593.534 238.712 593.568 238.874 593.634C239.036 593.699 239.183 593.796 239.307 593.918C239.431 594.04 239.53 594.184 239.597 594.344C239.664 594.503 239.698 594.673 239.698 594.846C239.698 595.018 239.664 595.188 239.597 595.348C239.53 595.507 239.431 595.651 239.307 595.773C239.183 595.895 239.036 595.992 238.874 596.058C238.712 596.123 238.538 596.157 238.363 596.157Z" fill="white"/>
<path d="M386.704 596.157H248.128C247.952 596.157 247.779 596.123 247.617 596.058C247.455 595.992 247.307 595.895 247.183 595.773C247.059 595.651 246.961 595.507 246.894 595.348C246.827 595.188 246.792 595.018 246.792 594.846C246.792 594.673 246.827 594.503 246.894 594.344C246.961 594.184 247.059 594.04 247.183 593.918C247.307 593.796 247.455 593.699 247.617 593.634C247.779 593.568 247.952 593.534 248.128 593.534H317.416H386.704C386.879 593.534 387.053 593.568 387.215 593.634C387.377 593.699 387.524 593.796 387.648 593.918C387.772 594.04 387.871 594.184 387.938 594.344C388.005 594.503 388.039 594.673 388.039 594.846C388.039 595.018 388.005 595.188 387.938 595.348C387.871 595.507 387.772 595.651 387.648 595.773C387.524 595.895 387.377 595.992 387.215 596.058C387.053 596.123 386.879 596.157 386.704 596.157Z" fill="white"/>
<path d="M281.561 575.133L267.367 556.101C267.367 556.101 269.297 557.365 282.204 555.469C295.111 553.572 281.561 575.133 281.561 575.133Z" fill="#959392"/>
<path d="M262.972 553.946C268.615 561.02 274.599 567.817 280.924 574.338C282.024 575.474 283.775 573.754 282.675 572.619C276.349 566.12 270.366 559.323 264.723 552.226C263.74 550.996 262.003 552.723 262.972 553.946Z" fill="#0C30A1"/>
<path d="M403.687 549.718C431.888 557.501 463.84 562.477 491.847 551.363C501.681 547.461 505.861 541.507 504.048 530.774C500.588 510.042 491.792 489.575 480.179 463.596C471.701 444.632 466.054 425.626 450.158 411.08C436.196 398.384 418.469 390.401 399.562 388.296H344.357C325.451 390.401 307.724 398.384 293.762 411.08C277.844 425.626 272.218 444.632 263.74 463.596C252.128 489.575 243.36 510.042 239.872 530.774C238.065 541.507 242.238 547.461 252.072 551.363C280.08 562.477 312.032 557.481 340.233 549.718" fill="#14A2CF"/>
<path d="M357.299 400.225L344.357 388.296C325.451 390.401 307.724 398.384 293.762 411.08C277.844 425.626 272.218 444.632 263.74 463.596C252.128 489.576 243.36 510.042 239.872 530.774C238.065 541.507 242.238 547.461 252.072 551.363C280.08 562.477 312.032 557.481 340.233 549.718L340.295 547.257C331.568 549.976 322.758 552.471 313.61 553.212C307.656 553.675 301.667 553.367 295.796 552.294C290.993 551.438 286.398 549.84 281.602 549.011C270.488 547.101 244.197 546.211 246.045 529.482C246.578 524.684 249.927 520.925 253.214 517.601C255.062 515.738 256.993 513.937 258.688 511.932C260.636 509.542 262.277 506.926 263.574 504.142C269.042 492.927 270.557 480.352 277.083 469.517C280.073 464.555 284.004 460.225 287.319 455.48C290.91 450.355 292.357 445.556 293.948 439.629C294.64 437.073 295.879 434.443 298.239 433.185C301.506 431.438 305.776 433.029 308.198 435.788C310.62 438.548 311.658 442.198 312.717 445.699C314.246 450.797 315.949 455.895 318.724 460.469C322.053 465.907 327.776 470.876 332.454 475.247C338.371 480.773 346.669 483.968 354.461 485.912C367.963 489.31 382.039 489.779 395.984 489.555C399.969 489.603 403.948 489.252 407.86 488.508C412.839 487.368 417.47 485.08 421.371 481.835C425.272 478.589 428.331 474.479 430.296 469.843C435.016 458.417 432.497 445.311 435.528 433.341C437.189 426.805 440.462 420.771 445.057 415.77C445.553 415.309 445.948 414.754 446.22 414.139C446.711 412.725 445.756 411.23 444.67 410.19C441.708 407.362 437.604 406.057 433.597 405.017C426.991 403.289 420.268 402.027 413.479 401.238C411.085 400.966 408.635 400.728 406.441 399.722C404.718 398.927 403.251 397.683 401.597 396.718C397.258 394.121 392.019 393.523 386.967 392.986C379.707 392.204 372.095 391.463 365.174 393.917C360.531 395.576 356.178 398.675 351.25 398.553" fill="#00C2FF"/>
<path d="M330.765 510.593C329.748 510.307 328.724 510.049 327.693 509.838C318.004 507.881 308.018 510.402 298.156 511.259C296.44 511.408 294.509 511.442 293.242 510.294C289.831 507.228 301.367 495.509 303.035 492.403C307.427 484.24 309.856 475.197 310.135 465.968C310.052 464.984 310.274 463.998 310.772 463.141C311.36 462.345 312.751 462.067 313.326 462.869C313.505 463.175 313.613 463.516 313.644 463.868C314.641 470.387 315.616 477.354 314.904 483.92C314.329 489.235 312.696 492.355 317.298 497.127C320.295 500.234 324.329 502.137 328.302 503.891C335.098 506.89 341.983 509.666 348.959 512.217L348.856 515.031C342.606 515.113 336.8 512.312 330.765 510.593Z" fill="#2A6B12"/>
<path d="M294.052 411.658C303.426 421.622 309.297 434.279 310.8 447.765C310.966 449.301 313.443 449.315 313.27 447.765C311.74 433.64 305.612 420.376 295.796 409.945C294.716 408.796 292.973 410.516 294.052 411.658Z" fill="#0D8AB1"/>
<path d="M307.561 413.344C311.369 421.631 313.766 430.477 314.654 439.527C314.8 441.07 317.277 441.084 317.125 439.527C316.207 430.054 313.705 420.794 309.72 412.12C309.07 410.7 306.952 411.93 307.582 413.344H307.561Z" fill="#0D8AB1"/>
<path d="M272.439 519.667C283.392 514.132 295.372 510.832 307.658 509.967C310.025 509.804 310.045 506.154 307.658 506.324C294.718 507.224 282.099 510.692 270.564 516.52C268.439 517.594 270.315 520.741 272.439 519.667Z" fill="#0D8AB1"/>
<path d="M246.993 511.966C252.503 488.072 261.179 464.991 272.799 443.313C276.08 437.209 279.584 431.234 283.312 425.388C284.156 424.029 282.017 422.839 281.18 424.158C267.91 444.998 257.469 467.452 250.121 490.948C248.026 497.66 246.181 504.439 244.584 511.286C244.231 512.809 246.612 513.461 246.965 511.966H246.993Z" fill="#220E75"/>
<path d="M292.841 413.629C295.116 411.01 297.569 408.546 300.184 406.254C300.414 406.025 300.543 405.716 300.543 405.394C300.543 405.072 300.414 404.763 300.184 404.534C299.948 404.315 299.636 404.192 299.312 404.192C298.987 404.192 298.675 404.315 298.44 404.534C295.835 406.823 293.392 409.283 291.125 411.896C290.899 412.127 290.773 412.435 290.773 412.756C290.773 413.076 290.899 413.384 291.125 413.615C291.359 413.84 291.673 413.966 292 413.966C292.327 413.966 292.642 413.84 292.876 413.615L292.841 413.629Z" fill="#220E75"/>
<path d="M430.31 553.212C436.265 553.676 442.257 553.367 448.13 552.294C452.926 551.438 457.521 549.841 462.324 549.011C473.397 547.101 499.695 546.211 497.875 529.483C497.342 524.684 493.999 520.925 490.705 517.601C488.857 515.738 486.926 513.937 485.231 511.932C483.285 509.542 481.646 506.926 480.352 504.142C474.878 492.927 473.362 480.352 466.843 469.517C461.694 460.979 453.431 453.829 450.801 443.979C449.417 438.793 450.158 433.824 451.805 428.808C453.14 424.77 454.185 420.481 451.009 416.98C448.386 414.078 444.78 413.425 441.092 412.793C436.656 412.032 432.185 411.536 427.742 410.836C423.043 410.088 418.434 408.708 413.797 407.668C409.161 406.628 394.621 402.087 390.205 400.191L399.562 388.262C418.468 390.367 436.195 398.35 450.158 411.046C466.075 425.593 471.701 444.598 480.179 463.562C491.791 489.542 500.56 510.008 504.048 530.74C505.861 541.473 501.681 547.428 491.847 551.329C463.84 562.443 431.888 557.447 403.687 549.684L403.624 547.224C412.351 549.949 421.161 552.471 430.31 553.212Z" fill="#00C2FF"/>
<path d="M448.123 409.945C438.307 420.377 432.179 433.64 430.649 447.765C430.483 449.315 432.953 449.302 433.12 447.765C434.623 434.279 440.493 421.622 449.867 411.658C450.954 410.516 449.175 408.79 448.123 409.945Z" fill="#0D8AB1"/>
<path d="M434.22 412.12C430.235 420.794 427.733 430.054 426.815 439.527C426.663 441.083 429.14 441.07 429.286 439.527C430.168 430.478 432.557 421.632 436.358 413.344C437.009 411.93 434.877 410.693 434.22 412.12Z" fill="#0D8AB1"/>
<path d="M473.383 516.5C461.848 510.672 449.229 507.203 436.289 506.304C433.908 506.134 433.922 509.777 436.289 509.947C448.576 510.818 460.557 514.125 471.508 519.667C473.632 520.741 475.508 517.628 473.383 516.52V516.5Z" fill="#0D8AB1"/>
<path d="M499.314 511.32C493.769 487.351 485.066 464.195 473.425 442.436C470.103 436.228 466.543 430.147 462.746 424.192C461.902 422.874 459.763 424.09 460.608 425.423C473.832 446.184 484.227 468.559 491.529 491.975C493.577 498.568 495.376 505.232 496.927 511.966C497.28 513.489 499.695 512.843 499.314 511.286V511.32Z" fill="#0D8AB1"/>
<path d="M413.154 510.593C414.171 510.307 415.195 510.049 416.227 509.838C425.915 507.881 435.902 510.402 445.763 511.259C447.479 511.408 449.41 511.442 450.684 510.294C454.089 507.228 442.559 495.509 440.884 492.403C436.491 484.241 434.064 475.197 433.791 465.968C433.868 464.984 433.644 463.999 433.147 463.141C432.559 462.345 431.168 462.067 430.6 462.869C430.415 463.172 430.306 463.515 430.282 463.868C429.286 470.387 428.303 477.354 429.016 483.92C429.59 489.236 431.223 492.356 426.621 497.127C423.631 500.234 419.59 502.137 415.618 503.891C408.831 506.881 401.936 509.648 394.932 512.19L395.036 515.004C401.313 515.113 407.126 512.313 413.154 510.593Z" fill="#2A6B12"/>
<path d="M452.829 411.896C450.554 409.277 448.101 406.813 445.486 404.521C445.252 404.305 444.941 404.188 444.62 404.193C444.298 404.198 443.992 404.326 443.765 404.549C443.537 404.772 443.407 405.074 443.402 405.389C443.396 405.705 443.516 406.01 443.736 406.24C446.352 408.536 448.805 411.004 451.078 413.629C451.311 413.855 451.626 413.982 451.954 413.982C452.281 413.982 452.596 413.855 452.829 413.629C453.055 413.398 453.18 413.09 453.18 412.769C453.18 412.449 453.055 412.141 452.829 411.909V411.896Z" fill="#0D8AB1"/>
<path d="M344.959 400.776C349.298 407.335 357.091 410.543 364.876 411.719C380.102 414.03 401.977 408.436 405.258 391.205C405.638 389.213 405.68 387.045 404.676 385.271C402.974 382.287 398.967 381.478 395.493 381.587C386.552 381.872 378.268 385.991 369.61 388.201C360.447 390.532 355.672 387.473 347.375 385.91C339.077 384.346 341.527 394.182 343.72 398.628C344.088 399.368 344.502 400.085 344.959 400.776Z" fill="#FF9E87"/>
<path opacity="0.8" d="M344.959 398.424C349.298 404.181 357.091 406.989 364.876 408.029C380.102 410.068 401.977 405.146 405.258 390.029C405.638 388.275 405.68 386.372 404.676 384.816C402.974 382.199 398.967 381.492 395.493 381.587C386.552 381.838 378.268 385.455 369.61 387.385C360.447 389.424 355.672 386.746 347.375 385.38C339.077 384.014 341.527 392.639 343.72 396.541C344.092 397.194 344.506 397.823 344.959 398.424Z" fill="#F0755C"/>
<path d="M333.34 363.723C330.387 358.118 327.437 352.508 324.488 346.893L323.796 346.581C321.644 344.603 317.955 344.861 315.741 346.771C313.526 348.681 312.703 351.821 313.132 354.683C313.561 357.545 315.09 360.121 316.924 362.412C318.758 364.702 321.167 366.864 324.018 367.938C326.869 369.012 330.302 368.903 332.772 367.143C333.283 366.827 333.665 366.346 333.852 365.783C333.934 365.059 333.753 364.329 333.34 363.723Z" fill="#FF9E87"/>
<path d="M328.917 354.663C328.066 352.909 327.208 351.162 326.357 349.415L325.54 349.993C323.609 347.899 319.651 349.803 319.07 352.569C318.488 355.336 320.128 358.075 321.969 360.25C323.596 362.18 326.212 364.084 328.475 362.915C329.859 362.235 330.482 360.529 330.385 358.999C330.182 357.475 329.684 356.003 328.917 354.663Z" fill="#FA826A"/>
<path d="M430.773 343.896C430.434 341.027 428.808 338.193 426.164 336.922C423.521 335.651 419.887 336.337 418.33 338.791L417.749 339.274C416.365 345.445 414.999 351.615 413.652 357.783C413.408 358.48 413.43 359.241 413.714 359.924C414.041 360.41 414.531 360.768 415.099 360.937C417.95 362.01 421.327 361.242 423.763 359.475C426.199 357.708 427.915 355.077 429.154 352.331C430.393 349.585 431.119 346.771 430.773 343.896Z" fill="#FF9E87"/>
<path d="M424.49 343.372C423.196 340.844 418.863 340.015 417.569 342.536L416.635 342.183C416.268 344.086 415.908 345.996 415.542 347.899C415.158 349.392 415.069 350.942 415.279 352.467C415.583 353.97 416.663 355.431 418.157 355.764C420.649 356.308 422.677 353.806 423.735 351.529C424.919 348.96 425.784 345.901 424.49 343.372Z" fill="#FA826A"/>
<path d="M408.579 300.488C400.275 293.528 390.282 294.235 372.074 293.072C359.852 292.298 345.305 292.692 335.271 300.55C323.817 309.556 323.187 324.564 322.911 328.69C322.184 339.729 327.527 350.374 338.246 371.221C351.728 397.438 357.001 400.504 359.915 401.877C370.226 406.723 384.545 406.146 393.174 398.981C396.718 396.038 398.019 393.074 401.244 386.162C415.431 355.893 415.839 359.407 417.777 352.515C421.382 339.729 423.943 313.424 408.579 300.488Z" fill="#FF9E87"/>
<path d="M408.579 300.488C400.635 293.691 390.448 294.248 372.074 293.072C359.852 292.298 345.305 292.692 335.271 300.549C324.198 309.257 323.333 323.66 322.911 328.69C321.796 341.986 328.634 354.139 342.288 378.44C344.987 383.198 354.897 400.524 365.866 403.528C372.34 405.382 379.26 405.042 385.513 402.563C389.666 400.952 403.188 392.775 411.424 366.415C415.694 352.725 427.071 316.367 408.579 300.488Z" fill="#FF9E87"/>
<path d="M404.877 300.577L404.794 300.488C398.206 294.112 377.043 293.63 368.288 293.072C356.786 292.338 343.222 292.651 333.305 299.265C337.727 298.836 342.191 298.347 346.565 299.333C350.306 300.303 353.765 302.116 356.669 304.628C359.942 307.496 359.298 312.295 357.977 315.939C357.218 318.044 356.157 320.033 354.828 321.845C353.631 323.477 351.741 324.87 351.035 326.794C350.845 327.238 350.778 327.723 350.841 328.201C350.904 328.679 351.095 329.131 351.395 329.513C352.15 330.349 353.471 330.417 354.572 330.288C360.184 329.662 364.696 325.781 370.198 324.761C374.468 323.966 378.309 325.978 382.275 327.161C386.904 328.52 390.898 327.351 395.59 327.236C402.344 327.073 407.638 331.79 409.022 338.111C411.465 349.211 409.957 360.828 406.005 371.418C402.005 382.131 396.046 392.334 387.472 400.157C389.438 399.158 391.293 397.962 393.008 396.589C394.904 395.127 396.658 393.495 398.247 391.715C401.392 388.312 404.051 384.504 406.15 380.397C410.635 371.772 412.974 362.147 413.964 352.528C415.514 337.819 416.386 312.01 404.877 300.577Z" fill="#FA826A"/>
<path d="M417.265 354.826C415.362 354.099 414.995 347.743 414.988 346.071C414.988 341.197 415.68 336.059 413.272 331.552C411.604 328.412 408.794 326.026 406.406 323.395C401.202 317.617 399.922 310.705 400.87 303.119C401.507 297.871 402.351 282.625 408.69 285.738C429.749 296.104 428.926 324.911 423.375 343.977C422.78 345.908 420.711 356.131 417.265 354.826Z" fill="#28282B"/>
<g style="mix-blend-mode:multiply" opacity="0.45">
<path d="M407.188 324.225C407.437 323.656 407.641 323.07 407.797 322.471C408.217 320.864 408.554 319.237 408.808 317.597C409.216 315.313 409.5 312.214 411.458 310.603C413.417 308.992 416.545 309.923 417.687 311.962C418.379 313.281 419.701 316.544 421.735 314.742C424.427 312.343 423.687 306.273 423.016 303.234C422.13 299.126 420.172 295.315 417.334 292.175C414.888 289.507 411.954 287.314 408.683 285.711C402.344 282.598 401.5 297.844 400.863 303.092C399.943 310.678 401.223 317.59 406.399 323.368C406.697 323.66 406.925 323.939 407.188 324.225Z" fill="#CC1F1F"/>
</g>
<path d="M326.309 348.973C326.246 346.458 323.208 332.952 326.468 330.994C328.502 329.778 330.371 329.118 331.79 327.072C332.911 325.441 333.264 323.436 333.589 321.499C334.281 317.264 334.814 309.998 329.437 308.346C322.405 306.191 319.056 313.471 318.592 317.998C317.9 325.128 318.758 342.869 325.852 354.907C326.267 352.957 326.42 350.962 326.309 348.973Z" fill="#28282B"/>
<g style="mix-blend-mode:multiply" opacity="0.45">
<path d="M329.43 308.346C322.398 306.191 319.049 313.471 318.585 317.998C318.294 321.81 318.329 325.639 318.689 329.445C320.073 331.797 321.914 334.203 324.302 335.012C324.529 335.078 324.76 335.13 324.994 335.168C325.097 333.129 325.499 331.572 326.461 330.995C327.194 330.553 327.907 330.186 328.585 329.798C328.599 329.576 328.663 329.36 328.774 329.166C328.884 328.972 329.038 328.805 329.224 328.678C329.41 328.551 329.623 328.467 329.847 328.433C330.071 328.398 330.3 328.414 330.516 328.48C330.997 328.065 331.422 327.592 331.783 327.072C332.904 325.441 333.257 323.436 333.582 321.499C334.302 317.264 334.814 309.998 329.43 308.346Z" fill="#CC1F1F"/>
</g>
<path d="M357.603 312.064C355.527 313.743 353.638 315.714 351.568 317.441C349.225 319.307 346.753 321.013 344.17 322.545C354.019 322.647 363.841 321.526 373.402 319.208C375.238 318.852 377.002 318.207 378.627 317.298C379.724 316.616 380.58 315.618 381.078 314.441C381.577 313.264 381.694 311.965 381.413 310.72C381.132 309.475 380.468 308.346 379.51 307.486C378.552 306.625 377.347 306.076 376.06 305.913C369.783 305.104 362.35 308.271 357.603 312.064Z" fill="#C61A1A"/>
<path d="M352.786 265.027C344.414 267.338 336.756 271.652 330.497 277.583C324.239 283.515 319.575 290.878 316.924 299.013C314.018 308.278 315.132 320.527 324.018 324.748C326.598 325.85 329.377 326.435 332.191 326.468C342.263 326.966 352.281 324.732 361.146 320.01C365.084 317.91 368.648 314.871 373.001 313.573C376.461 312.54 379.589 314.212 374.87 316.081C369.43 318.236 362.53 319.854 358.696 324.558C358.119 325.177 357.755 325.959 357.658 326.794C357.465 332.422 366.51 324.755 367.742 324.156C373.409 321.519 379.818 323.083 385.852 323.117C391.473 323.235 396.948 321.357 401.271 317.828C409.576 310.936 412.469 297.436 409.444 287.424C406.226 276.759 395.299 269.323 384.939 266.039C374.794 262.838 363.098 262.281 352.786 265.027Z" fill="#28282B"/>
<path d="M614.85 381.967V385.774C614.85 386.096 614.98 386.406 615.212 386.634C615.445 386.862 615.76 386.99 616.088 386.99C616.417 386.99 616.732 386.862 616.964 386.634C617.197 386.406 617.327 386.096 617.327 385.774V381.967C617.327 381.644 617.197 381.335 616.964 381.107C616.732 380.879 616.417 380.75 616.088 380.75C615.76 380.75 615.445 380.879 615.212 381.107C614.98 381.335 614.85 381.644 614.85 381.967Z" fill="white"/>
<g style="mix-blend-mode:screen">
<path d="M299.697 464.766L444.404 461.803L545.99 240H186C196.464 260.682 206.925 281.366 217.384 302.053L299.697 464.766Z" fill="url(#paint2_linear)" style="mix-blend-mode:color-dodge"/>
</g>
<path d="M455.895 576.242H286.661C284.89 576.242 283.191 575.55 281.939 574.32C280.686 573.09 279.983 571.422 279.983 569.682V471.407C279.983 467.945 281.383 464.626 283.874 462.178C286.366 459.731 289.746 458.356 293.27 458.356H449.286C452.81 458.356 456.191 459.731 458.684 462.178C461.177 464.625 462.578 467.945 462.58 471.407V569.669C462.581 570.531 462.409 571.386 462.073 572.183C461.738 572.981 461.245 573.706 460.624 574.316C460.004 574.926 459.266 575.411 458.455 575.741C457.643 576.072 456.773 576.242 455.895 576.242Z" fill="#8B8B8B"/>
<path d="M456.428 458.369H450.732C451.117 460.427 451.291 462.517 451.251 464.609C451.355 468.711 451.168 472.815 450.691 476.892C449.507 485.633 446.684 494.035 443.016 502.042C430.753 528.844 409.88 551.316 386.607 569.383C383.617 571.707 380.581 573.987 377.499 576.221H459.487C460.306 576.221 461.092 575.902 461.672 575.333C462.252 574.765 462.578 573.994 462.58 573.189V464.405C462.58 463.612 462.421 462.826 462.112 462.094C461.802 461.361 461.349 460.695 460.778 460.135C460.206 459.574 459.528 459.13 458.782 458.827C458.035 458.524 457.235 458.368 456.428 458.369Z" fill="#535353"/>
<path opacity="0.7" d="M286.433 469.157C286.434 467.556 287.082 466.022 288.235 464.891C289.387 463.759 290.949 463.122 292.578 463.121H462.435C462.138 461.773 461.379 460.566 460.287 459.7C459.194 458.834 457.832 458.362 456.428 458.363H286.128C285.321 458.362 284.521 458.517 283.775 458.82C283.029 459.123 282.351 459.568 281.781 460.128C281.21 460.689 280.757 461.355 280.449 462.088C280.14 462.82 279.982 463.606 279.983 464.399V573.203C279.983 574.007 280.308 574.778 280.887 575.347C281.466 575.915 282.251 576.234 283.069 576.234H286.433V469.157Z" fill="#FFFFFC"/>
<path d="M303.499 460.375H423.507C423.819 460.352 424.11 460.214 424.323 459.989C424.535 459.764 424.653 459.468 424.653 459.161C424.653 458.854 424.535 458.559 424.323 458.334C424.11 458.108 423.819 457.971 423.507 457.948H303.499C303.187 457.971 302.896 458.108 302.683 458.334C302.47 458.559 302.352 458.854 302.352 459.161C302.352 459.468 302.47 459.764 302.683 459.989C302.896 460.214 303.187 460.352 303.499 460.375Z" fill="#5C5C5C"/>
<path d="M278.709 484.825V564.353C278.733 564.659 278.873 564.945 279.102 565.154C279.331 565.363 279.632 565.479 279.945 565.479C280.257 565.479 280.558 565.363 280.787 565.154C281.016 564.945 281.157 564.659 281.18 564.353V484.825C281.157 484.518 281.016 484.232 280.787 484.024C280.558 483.815 280.257 483.699 279.945 483.699C279.632 483.699 279.331 483.815 279.102 484.024C278.873 484.232 278.733 484.518 278.709 484.825Z" fill="#474747"/>
<path d="M458.082 550.418V568.479C458.105 568.785 458.245 569.071 458.474 569.28C458.704 569.489 459.005 569.605 459.317 569.605C459.63 569.605 459.931 569.489 460.16 569.28C460.389 569.071 460.529 568.785 460.552 568.479V550.418C460.529 550.112 460.389 549.826 460.16 549.617C459.931 549.408 459.63 549.292 459.317 549.292C459.005 549.292 458.704 549.408 458.474 549.617C458.245 549.826 458.105 550.112 458.082 550.418Z" fill="white"/>
<path d="M458.4 543.132V546.299C458.4 546.622 458.531 546.931 458.763 547.159C458.995 547.388 459.31 547.516 459.639 547.516C459.967 547.516 460.282 547.388 460.515 547.159C460.747 546.931 460.878 546.622 460.878 546.299V543.132C460.878 542.809 460.747 542.5 460.515 542.271C460.282 542.043 459.967 541.915 459.639 541.915C459.31 541.915 458.995 542.043 458.763 542.271C458.531 542.5 458.4 542.809 458.4 543.132Z" fill="white"/>
<path d="M430.407 578.063C433.175 578.063 436.005 578.063 438.787 578.341C439.085 578.341 438.393 578.274 438.663 578.341C438.979 578.42 439.314 578.375 439.598 578.217C439.881 578.059 440.092 577.799 440.185 577.492C440.27 577.182 440.227 576.851 440.065 576.573C439.903 576.294 439.635 576.089 439.32 576.003C438.967 575.935 438.608 575.894 438.248 575.881C437.03 575.793 435.805 575.759 434.587 575.725L430.434 575.643C430.106 575.643 429.791 575.771 429.558 575.999C429.326 576.228 429.196 576.537 429.196 576.86C429.196 577.182 429.326 577.492 429.558 577.72C429.791 577.948 430.106 578.076 430.434 578.076L430.407 578.063Z" fill="white"/>
<path d="M285.872 577.655C321.686 578.213 357.513 577.968 393.334 578.138C403.728 578.192 414.125 578.28 424.524 578.403C426.116 578.403 426.116 575.99 424.524 575.969C387.306 575.494 350.087 575.684 312.869 575.487C303.872 575.437 294.876 575.351 285.879 575.229C284.287 575.229 284.28 577.628 285.879 577.655H285.872Z" fill="white"/>
<path d="M292.689 526.336V492.111C292.665 491.805 292.525 491.519 292.296 491.31C292.067 491.101 291.766 490.985 291.453 490.985C291.141 490.985 290.84 491.101 290.611 491.31C290.382 491.519 290.241 491.805 290.218 492.111V526.336C290.241 526.642 290.382 526.928 290.611 527.137C290.84 527.345 291.141 527.461 291.453 527.461C291.766 527.461 292.067 527.345 292.296 527.137C292.525 526.928 292.665 526.642 292.689 526.336Z" fill="white"/>
<path d="M373.609 505.524C367.357 505.524 362.271 510.791 362.271 517.266C362.271 523.74 367.357 529.007 373.609 529.007C379.861 529.007 384.947 523.74 384.947 517.266C384.947 510.791 379.861 505.524 373.609 505.524ZM377.958 518.949L378.984 525.148L373.609 522.22L368.234 525.148L369.26 518.949L364.913 514.558L370.921 513.654L373.609 508.013L376.297 513.654L382.306 514.558L377.958 518.949Z" fill="#D5D8E2"/>
<path d="M373.609 505.524C367.357 505.524 362.271 510.791 362.271 517.266C362.271 523.74 367.357 529.007 373.609 529.007C379.861 529.007 384.947 523.74 384.947 517.266C384.947 510.791 379.861 505.524 373.609 505.524ZM377.958 518.949L378.984 525.148L373.609 522.22L368.234 525.148L369.26 518.949L364.913 514.558L370.921 513.654L373.609 508.013L376.297 513.654L382.306 514.558L377.958 518.949Z" fill="url(#paint3_linear)"/>
<path d="M374.624 516.038L373.609 513.908L372.594 516.038L370.326 516.38L371.967 518.039L371.581 520.378L373.609 519.272L375.638 520.378L375.252 518.039L376.893 516.38L374.624 516.038Z" fill="#D5D8E2"/>
<path d="M374.624 516.038L373.609 513.908L372.594 516.038L370.326 516.38L371.967 518.039L371.581 520.378L373.609 519.272L375.638 520.378L375.252 518.039L376.893 516.38L374.624 516.038Z" fill="url(#paint4_linear)"/>
<path d="M395 517.485L391.935 512.4L392.386 506.258L387.024 503.593L384.45 498.04L378.519 498.508L373.609 495L368.699 498.508L362.768 498.04L360.195 503.593L354.832 506.258L355.284 512.4L352 517.485L355.284 522.571L354.832 528.712L360.195 531.378L362.768 536.93L368.699 536.463L373.609 539.531L378.519 536.463L384.45 536.93L387.024 531.378L392.386 528.712L391.935 522.571L395 517.485ZM373.609 531.616C365.968 531.616 359.752 525.179 359.752 517.266C359.752 509.353 365.968 502.915 373.609 502.915C381.25 502.915 387.467 509.353 387.467 517.266C387.467 525.179 381.25 531.616 373.609 531.616Z" fill="#D5D8E2"/>
<path d="M395 517.485L391.935 512.4L392.386 506.258L387.024 503.593L384.45 498.04L378.519 498.508L373.609 495L368.699 498.508L362.768 498.04L360.195 503.593L354.832 506.258L355.284 512.4L352 517.485L355.284 522.571L354.832 528.712L360.195 531.378L362.768 536.93L368.699 536.463L373.609 539.531L378.519 536.463L384.45 536.93L387.024 531.378L392.386 528.712L391.935 522.571L395 517.485ZM373.609 531.616C365.968 531.616 359.752 525.179 359.752 517.266C359.752 509.353 365.968 502.915 373.609 502.915C381.25 502.915 387.467 509.353 387.467 517.266C387.467 525.179 381.25 531.616 373.609 531.616Z" fill="url(#paint5_linear)"/>
<path d="M186.092 564.339C183.871 564.339 180.854 564.339 180.556 560.383V553.205C180.556 551.023 181.719 548.889 186.092 549.249V545.701H183.629C181.61 545.701 179.673 546.489 178.246 547.891C176.818 549.293 176.016 551.195 176.016 553.178V560.356C176.016 562.339 176.818 564.241 178.246 565.643C179.673 567.045 181.61 567.833 183.629 567.833H186.092V564.339Z" fill="#4F4B4B"/>
<path d="M223.851 563.945V537.51C223.851 537.445 223.838 537.381 223.812 537.32C223.787 537.26 223.75 537.206 223.703 537.159C223.656 537.113 223.6 537.077 223.539 537.052C223.478 537.027 223.412 537.014 223.345 537.014H186.535C186.469 537.014 186.403 537.027 186.342 537.052C186.281 537.077 186.225 537.113 186.178 537.159C186.131 537.206 186.094 537.26 186.069 537.32C186.043 537.381 186.03 537.445 186.03 537.51V565.978C186.03 568.066 186.449 570.135 187.263 572.064C188.077 573.994 189.27 575.748 190.773 577.225C192.277 578.702 194.062 579.873 196.027 580.673C197.992 581.472 200.098 581.883 202.224 581.883H207.657C209.783 581.883 211.889 581.472 213.854 580.673C215.819 579.873 217.604 578.702 219.108 577.225C220.611 575.748 221.804 573.994 222.618 572.064C223.432 570.135 223.851 568.066 223.851 565.978V563.938" fill="#1F1F1F"/>
<path d="M194.868 537.014V566.474C194.869 570.355 196.362 574.093 199.049 576.939C201.736 579.785 205.419 581.529 209.359 581.822C208.965 581.822 208.57 581.883 208.162 581.883H201.719C197.558 581.883 193.567 580.26 190.625 577.37C187.683 574.48 186.03 570.561 186.03 566.474V537.014H194.868Z" fill="#4F4B4B"/>
<path d="M183.629 569.125H186.092C186.414 569.118 186.72 568.99 186.948 568.767C187.176 568.544 187.308 568.244 187.317 567.928V564.373C187.317 564.047 187.185 563.734 186.95 563.503C186.715 563.272 186.397 563.143 186.065 563.143C183.296 563.143 181.982 562.864 181.809 560.336V553.239C181.778 552.868 181.827 552.494 181.953 552.142C182.08 551.791 182.28 551.47 182.542 551.2C183.186 550.615 184.369 550.371 185.954 550.52C186.275 550.528 186.586 550.415 186.825 550.205C187.064 549.995 187.212 549.703 187.24 549.389C187.267 549.075 187.171 548.763 186.972 548.516C186.773 548.269 186.486 548.106 186.168 548.06C183.822 547.869 182.016 548.318 180.847 549.419C180.327 549.917 179.92 550.517 179.654 551.18C179.388 551.843 179.269 552.554 179.303 553.266V560.444C179.594 564.733 182.597 565.481 184.84 565.61V566.718H183.636C181.942 566.716 180.318 566.055 179.121 564.879C177.923 563.702 177.25 562.108 177.248 560.444V556.23C177.261 556.06 177.238 555.89 177.18 555.729C177.123 555.569 177.033 555.421 176.915 555.297C176.797 555.172 176.654 555.072 176.495 555.004C176.336 554.936 176.165 554.901 175.992 554.901C175.819 554.901 175.647 554.936 175.488 555.004C175.33 555.072 175.187 555.172 175.069 555.297C174.951 555.421 174.86 555.569 174.803 555.729C174.746 555.89 174.723 556.06 174.736 556.23V560.444C174.756 562.75 175.701 564.954 177.366 566.58C179.031 568.205 181.281 569.119 183.629 569.125Z" fill="#1F1F1F"/>
<defs>
<linearGradient id="paint0_linear" x1="374.351" y1="71.4054" x2="476.344" y2="533.441" gradientUnits="userSpaceOnUse">
<stop offset="0.463542" stop-color="#220E75"/>
<stop offset="0.895833" stop-color="#50D5FF"/>
<stop offset="0.927083" stop-color="#50D5FF"/>
</linearGradient>
<linearGradient id="paint1_linear" x1="634.07" y1="729.949" x2="-6.15884" y2="309.259" gradientUnits="userSpaceOnUse">
<stop stop-color="#220E75"/>
<stop offset="0.651042" stop-color="#220E75"/>
</linearGradient>
<linearGradient id="paint2_linear" x1="401.002" y1="226.183" x2="401.002" y2="449.658" gradientUnits="userSpaceOnUse">
<stop offset="0.12" stop-color="#595A12"/>
<stop offset="0.64" stop-color="#12215A"/>
</linearGradient>
<linearGradient id="paint3_linear" x1="373.609" y1="505.524" x2="373.609" y2="529.007" gradientUnits="userSpaceOnUse">
<stop stop-color="#BCC3CC"/>
<stop offset="0.947917" stop-color="white" stop-opacity="0"/>
</linearGradient>
<linearGradient id="paint4_linear" x1="373.609" y1="513.908" x2="373.609" y2="520.378" gradientUnits="userSpaceOnUse">
<stop stop-color="#BCC3CC"/>
<stop offset="0.947917" stop-color="white" stop-opacity="0"/>
</linearGradient>
<linearGradient id="paint5_linear" x1="373.5" y1="495" x2="373.5" y2="539.531" gradientUnits="userSpaceOnUse">
<stop stop-color="#BCC3CC"/>
<stop offset="0.947917" stop-color="white" stop-opacity="0"/>
</linearGradient>
</defs>
</svg>
